<svg width="268" height="68" viewBox="0 0 268 68" fill="none" xmlns="http://www.w3.org/2000/svg">
<path d="M260.794 18.1593V29.3232C260.794 30.6818 261.355 31.3611 262.477 31.3611C263.599 31.3611 264.161 30.6818 264.161 29.3232V18.1593C264.161 16.8007 263.599 16.1214 262.477 16.1214C261.355 16.1214 260.794 16.8007 260.794 18.1593ZM257.545 29.1165V18.366C257.545 16.7121 257.968 15.4323 258.815 14.5265C259.662 13.6208 260.882 13.168 262.477 13.168C264.072 13.168 265.293 13.6208 266.139 14.5265C266.986 15.4323 267.409 16.7121 267.409 18.366V29.1165C267.409 30.7704 266.986 32.0502 266.139 32.956C265.293 33.8617 264.072 34.3145 262.477 34.3145C260.882 34.3145 259.662 33.8617 258.815 32.956C257.968 32.0502 257.545 30.7704 257.545 29.1165Z" fill="#242425"/>
<path d="M246.34 16.3577V13.4043H256.382V16.3577H252.985V34.0783H249.736V16.3577H246.34Z" fill="#242425"/>
<path d="M235.369 13.4043H238.618V29.3528C238.618 30.6917 239.179 31.3612 240.301 31.3612C241.424 31.3612 241.985 30.6917 241.985 29.3528V13.4043H245.056V29.1461C245.056 30.8197 244.643 32.1094 243.816 33.0151C242.989 33.9011 241.788 34.3441 240.213 34.3441C238.638 34.3441 237.437 33.9011 236.61 33.0151C235.783 32.1094 235.369 30.8197 235.369 29.1461V13.4043Z" fill="#242425"/>
<path d="M230.696 13.4043L234.004 34.0783H230.725L230.164 30.3275H226.177L225.616 34.0783H222.633L225.941 13.4043H230.696ZM228.156 17.0666L226.59 27.5217H229.721L228.156 17.0666Z" fill="#242425"/>
<path d="M213.48 34.0783V13.4043H216.729V31.1249H222.075V34.0783H213.48Z" fill="#242425"/>
<path d="M208.661 13.4043L211.968 34.0783H208.69L208.129 30.3275H204.142L203.581 34.0783H200.598L203.905 13.4043H208.661ZM206.121 17.0666L204.555 27.5217H207.686L206.121 17.0666Z" fill="#242425"/>
<path d="M189.964 13.4043L192.356 28.0829L194.571 13.4043H199.09V34.0783H196.019V19.2521L193.774 34.0783H190.702L188.281 19.4588V34.0783H185.445V13.4043H189.964Z" fill="#242425"/>
<path d="M180.655 13.4043L183.963 34.0783H180.684L180.123 30.3275H176.136L175.575 34.0783H172.592L175.9 13.4043H180.655ZM178.115 17.0666L176.549 27.5217H179.68L178.115 17.0666Z" fill="#242425"/>
<path d="M166.222 34.0783V27.2264L162.117 13.4043H165.514L167.995 22.8257L170.475 13.4043H173.577L169.471 27.2264V34.0783H166.222Z" fill="#242425"/>
<path d="M259.22 48.6538L257.364 55.1264H255.086V41.0117H257.062V49.9443L257.869 46.8391L259.683 41.0117H262.123V55.1264H260.127V45.1856L259.22 48.6538Z" fill="#242425"/>
<path d="M247.254 43.0281V41.0117H254.11V43.0281H251.791V55.1264H249.573V43.0281H247.254Z" fill="#242425"/>
<path d="M244.456 49.8638H246.553V51.7391C246.553 52.8817 246.271 53.7622 245.706 54.3805C245.142 54.9854 244.322 55.2879 243.246 55.2879C242.171 55.2879 241.351 54.9854 240.786 54.3805C240.222 53.7622 239.939 52.8817 239.939 51.7391V44.3994C239.939 43.2568 240.222 42.383 240.786 41.7781C241.351 41.1598 242.171 40.8506 243.246 40.8506C244.322 40.8506 245.142 41.1598 245.706 41.7781C246.271 42.383 246.553 43.2568 246.553 44.3994V45.7706H244.456V44.2583C244.456 43.3307 244.073 42.867 243.307 42.867C242.541 42.867 242.157 43.3307 242.157 44.2583V51.8802C242.157 52.7943 242.541 53.2514 243.307 53.2514C244.073 53.2514 244.456 52.7943 244.456 51.8802V49.8638Z" fill="#242425"/>
<path d="M236.829 41.0117L239.087 55.1264H236.849L236.466 52.5656H233.744L233.361 55.1264H231.324L233.583 41.0117H236.829ZM235.095 43.512L234.026 50.65H236.164L235.095 43.512Z" fill="#242425"/>
<path d="M228.058 41.0117H230.276V55.1264H228.058V49.4402C227.574 49.9645 226.943 50.2266 226.163 50.2266C225.276 50.2266 224.59 49.9376 224.106 49.3596C223.636 48.7681 223.4 47.975 223.4 46.9802V41.0117H225.618V46.7987C225.618 47.2558 225.739 47.6053 225.981 47.8473C226.223 48.0758 226.533 48.1901 226.909 48.1901C227.272 48.1901 227.554 48.0691 227.756 47.8271C227.957 47.5717 228.058 47.2087 228.058 46.7383V41.0117Z" fill="#242425"/>
<path d="M217.154 43.0281V55.1264H214.936V41.0117H221.932V55.1264H219.674V43.0281H217.154Z" fill="#242425"/>
<path d="M211.645 41.0117L213.904 55.1264H211.666L211.282 52.5656H208.56L208.177 55.1264H206.141L208.399 41.0117H211.645ZM209.911 43.512L208.843 50.65H210.98L209.911 43.512Z" fill="#242425"/>
<path d="M203.005 45.2665V44.4801C203.005 43.8752 202.904 43.4584 202.703 43.2299C202.514 42.988 202.232 42.867 201.856 42.867C201.076 42.867 200.686 43.3307 200.686 44.2583V45.4076H198.65V44.3591C198.65 43.2165 198.925 42.3494 199.476 41.758C200.028 41.153 200.841 40.8506 201.916 40.8506C202.992 40.8506 203.812 41.1598 204.376 41.7781C204.941 42.383 205.223 43.2568 205.223 44.3994V44.7624C205.223 46.2679 204.706 47.2358 203.671 47.666C204.706 48.123 205.223 49.111 205.223 50.6301V51.7391C205.223 52.8817 204.941 53.7622 204.376 54.3805C203.812 54.9854 202.992 55.2879 201.916 55.2879C200.841 55.2879 200.021 54.9854 199.456 54.3805C198.892 53.7622 198.609 52.8817 198.609 51.7391V50.1865H200.706V51.8802C200.706 52.8078 201.09 53.2715 201.856 53.2715C202.232 53.2715 202.514 53.1573 202.703 52.9287C202.904 52.6868 203.005 52.2701 203.005 51.6786V50.5696C203.005 49.9243 202.891 49.4673 202.662 49.1984C202.434 48.9161 202.064 48.775 201.553 48.775H201.009V46.7586H201.674C202.118 46.7586 202.447 46.6443 202.662 46.4158C202.891 46.1873 203.005 45.8042 203.005 45.2665Z" fill="#242425"/>
<path d="M192.773 44.2583V51.8802C192.773 52.8078 193.156 53.2715 193.922 53.2715C194.688 53.2715 195.071 52.8078 195.071 51.8802V44.2583C195.071 43.3307 194.688 42.867 193.922 42.867C193.156 42.867 192.773 43.3307 192.773 44.2583ZM190.555 51.7391V44.3994C190.555 43.2702 190.844 42.3965 191.422 41.7781C192 41.1598 192.833 40.8506 193.922 40.8506C195.011 40.8506 195.844 41.1598 196.422 41.7781C197 42.3965 197.289 43.2702 197.289 44.3994V51.7391C197.289 52.8682 197 53.742 196.422 54.3604C195.844 54.9787 195.011 55.2879 193.922 55.2879C192.833 55.2879 192 54.9787 191.422 54.3604C190.844 53.742 190.555 52.8682 190.555 51.7391Z" fill="#242425"/>
<path d="M182.902 43.0281V41.0117H189.758V43.0281H187.439V55.1264H185.221V43.0281H182.902Z" fill="#242425"/>
<path d="M178.705 41.0117C179.847 41.0117 180.681 41.2806 181.205 41.8183C181.729 42.3425 181.991 43.1558 181.991 44.2581V44.7622C181.991 46.214 181.514 47.1617 180.56 47.6053C181.662 48.0355 182.213 49.0437 182.213 50.6299V51.7792C182.213 52.8681 181.924 53.7015 181.346 54.2795C180.781 54.8441 179.948 55.1264 178.846 55.1264H175.357V41.0117H178.705ZM178.563 48.7748H177.575V53.11H178.846C179.236 53.11 179.525 53.0092 179.713 52.8076C179.901 52.5925 179.995 52.2295 179.995 51.7187V50.4887C179.995 49.8435 179.881 49.3999 179.652 49.1579C179.437 48.9025 179.074 48.7748 178.563 48.7748ZM178.644 43.0281H177.575V46.7584H178.442C178.886 46.7584 179.215 46.6442 179.431 46.4156C179.659 46.1871 179.773 45.804 179.773 45.2663V44.4799C179.773 43.512 179.397 43.0281 178.644 43.0281Z" fill="#242425"/>
<path d="M172.065 41.0117L174.324 55.1264H172.085L171.702 52.5656H168.98L168.597 55.1264H166.561L168.819 41.0117H172.065ZM170.331 43.512L169.263 50.65H171.4L170.331 43.512Z" fill="#242425"/>
<path fill-rule="evenodd" clip-rule="evenodd" d="M42.5156 8.03556C42.5156 17.6928 43.5954 38.4894 47.9144 44.4185C49.1947 46.176 51.3764 48.4901 53.9883 51.0168V42.3975L62.0864 38.3549L57.3625 35.6599V22.8585L91.1048 4.66702V53.1776L81.657 42.3975V18.8159L64.111 29.5961L70.1846 33.6386V45.0925L55.4754 52.4352C61.5051 58.1118 69.1797 64.5026 73.5585 68C79.6322 63.5083 93.264 52.5036 99.2027 44.4185C101.002 40.6005 104.601 27.9788 104.601 8.03556C95.1536 1.97174 69.5095 -6.51761 42.5156 8.03556Z" fill="#000BA9"/>
<path d="M106.625 25.5529L107.3 9.38267L147.116 8.03516C146.576 12.3472 143.292 15.6711 141.717 16.794L106.625 25.5529Z" fill="#000BA9"/>
<path d="M139.693 20.1628L105.95 28.9216L103.926 42.3968C108.875 40.6001 120.662 36.4677 128.22 34.3117C135.779 32.1557 139.018 23.9808 139.693 20.1628Z" fill="#000BA9"/>
<path d="M40.4901 25.5529L39.8152 9.38267L-0.000694275 8.03516C0.539181 12.3472 3.82343 15.6711 5.39808 16.794L40.4901 25.5529Z" fill="#000BA9"/>
<path d="M7.42261 20.1628L41.1649 28.9216L43.1895 42.3968C38.2406 40.6001 26.4533 36.4677 18.895 34.3117C11.3367 32.1557 8.09746 23.9808 7.42261 20.1628Z" fill="#000BA9"/>
</svg>
