<svg width="199" height="51" viewBox="0 0 199 51" fill="none" xmlns="http://www.w3.org/2000/svg">
<path d="M193.596 13.9108V21.6621C193.596 22.6054 193.985 23.077 194.764 23.077C195.544 23.077 195.933 22.6054 195.933 21.6621V13.9108C195.933 12.9676 195.544 12.4959 194.764 12.4959C193.985 12.4959 193.596 12.9676 193.596 13.9108ZM191.34 21.5186V14.0544C191.34 12.906 191.634 12.0174 192.222 11.3886C192.809 10.7597 193.657 10.4453 194.764 10.4453C195.872 10.4453 196.719 10.7597 197.307 11.3886C197.895 12.0174 198.189 12.906 198.189 14.0544V21.5186C198.189 22.6669 197.895 23.5555 197.307 24.1843C196.719 24.8132 195.872 25.1276 194.764 25.1276C193.657 25.1276 192.809 24.8132 192.222 24.1843C191.634 23.5555 191.34 22.6669 191.34 21.5186Z" fill="white"/>
<path d="M183.559 12.66V10.6094H190.531V12.66H188.172V24.9636H185.917V12.66H183.559Z" fill="white"/>
<path d="M175.941 10.6094H178.197V21.6826C178.197 22.6122 178.587 23.077 179.366 23.077C180.145 23.077 180.535 22.6122 180.535 21.6826V10.6094H182.667V21.5391C182.667 22.7011 182.38 23.5965 181.806 24.2254C181.232 24.8406 180.398 25.1481 179.304 25.1481C178.211 25.1481 177.377 24.8406 176.803 24.2254C176.228 23.5965 175.941 22.7011 175.941 21.5391V10.6094Z" fill="white"/>
<path d="M172.698 10.6094L174.994 24.9636H172.718L172.329 22.3593H169.56L169.171 24.9636H167.1L169.396 10.6094H172.698ZM170.934 13.1521L169.847 20.4113H172.021L170.934 13.1521Z" fill="white"/>
<path d="M160.744 24.9636V10.6094H163V22.913H166.711V24.9636H160.744Z" fill="white"/>
<path d="M157.397 10.6094L159.694 24.9636H157.417L157.028 22.3593H154.26L153.87 24.9636H151.799L154.096 10.6094H157.397ZM155.633 13.1521L154.547 20.4113H156.72L155.633 13.1521Z" fill="white"/>
<path d="M144.417 10.6094L146.078 20.8009L147.616 10.6094H150.753V24.9636H148.62V14.6696L147.062 24.9636H144.929L143.248 14.8131V24.9636H141.279V10.6094H144.417Z" fill="white"/>
<path d="M137.954 10.6094L140.25 24.9636H137.974L137.585 22.3593H134.816L134.427 24.9636H132.355L134.652 10.6094H137.954ZM136.19 13.1521L135.103 20.4113H137.277L136.19 13.1521Z" fill="white"/>
<path d="M127.932 24.9636V20.2062L125.082 10.6094H127.44L129.163 17.1508L130.885 10.6094H133.038L130.188 20.2062V24.9636H127.932Z" fill="white"/>
<path d="M192.501 34.9759L191.213 39.4699H189.631V29.6699H191.003V35.8719L191.563 33.7159L192.823 29.6699H194.517V39.4699H193.131V32.5679L192.501 34.9759Z" fill="white"/>
<path d="M184.191 31.0699V29.6699H188.951V31.0699H187.341V39.4699H185.801V31.0699H184.191Z" fill="white"/>
<path d="M182.249 35.8156H183.705V37.1176C183.705 37.911 183.509 38.5223 183.117 38.9516C182.725 39.3716 182.156 39.5816 181.409 39.5816C180.663 39.5816 180.093 39.3716 179.701 38.9516C179.309 38.5223 179.113 37.911 179.113 37.1176V32.0216C179.113 31.2283 179.309 30.6216 179.701 30.2016C180.093 29.7723 180.663 29.5576 181.409 29.5576C182.156 29.5576 182.725 29.7723 183.117 30.2016C183.509 30.6216 183.705 31.2283 183.705 32.0216V32.9736H182.249V31.9236C182.249 31.2796 181.983 30.9576 181.451 30.9576C180.919 30.9576 180.653 31.2796 180.653 31.9236V37.2156C180.653 37.8503 180.919 38.1676 181.451 38.1676C181.983 38.1676 182.249 37.8503 182.249 37.2156V35.8156Z" fill="white"/>
<path d="M176.955 29.6699L178.523 39.4699H176.969L176.703 37.6919H174.813L174.547 39.4699H173.133L174.701 29.6699H176.955ZM175.751 31.4059L175.009 36.3619H176.493L175.751 31.4059Z" fill="white"/>
<path d="M170.865 29.6699H172.405V39.4699H170.865V35.5219C170.529 35.8859 170.09 36.0679 169.549 36.0679C168.933 36.0679 168.457 35.8673 168.121 35.4659C167.794 35.0553 167.631 34.5046 167.631 33.8139V29.6699H169.171V33.6879C169.171 34.0053 169.255 34.2479 169.423 34.4159C169.591 34.5746 169.806 34.6539 170.067 34.6539C170.319 34.6539 170.515 34.5699 170.655 34.4019C170.795 34.2246 170.865 33.9726 170.865 33.6459V29.6699Z" fill="white"/>
<path d="M163.294 31.0699V39.4699H161.754V29.6699H166.612V39.4699H165.044V31.0699H163.294Z" fill="white"/>
<path d="M159.468 29.6699L161.036 39.4699H159.482L159.216 37.6919H157.326L157.06 39.4699H155.646L157.214 29.6699H159.468ZM158.264 31.4059L157.522 36.3619H159.006L158.264 31.4059Z" fill="white"/>
<path d="M153.47 32.6236V32.0776C153.47 31.6576 153.4 31.3683 153.26 31.2096C153.129 31.0416 152.933 30.9576 152.672 30.9576C152.131 30.9576 151.86 31.2796 151.86 31.9236V32.7216H150.446V31.9936C150.446 31.2003 150.637 30.5983 151.02 30.1876C151.403 29.7676 151.967 29.5576 152.714 29.5576C153.461 29.5576 154.03 29.7723 154.422 30.2016C154.814 30.6216 155.01 31.2283 155.01 32.0216V32.2736C155.01 33.319 154.651 33.991 153.932 34.2896C154.651 34.607 155.01 35.293 155.01 36.3476V37.1176C155.01 37.911 154.814 38.5223 154.422 38.9516C154.03 39.3716 153.461 39.5816 152.714 39.5816C151.967 39.5816 151.398 39.3716 151.006 38.9516C150.614 38.5223 150.418 37.911 150.418 37.1176V36.0396H151.874V37.2156C151.874 37.8596 152.14 38.1816 152.672 38.1816C152.933 38.1816 153.129 38.1023 153.26 37.9436C153.4 37.7756 153.47 37.4863 153.47 37.0756V36.3056C153.47 35.8576 153.391 35.5403 153.232 35.3536C153.073 35.1576 152.817 35.0596 152.462 35.0596H152.084V33.6596H152.546C152.854 33.6596 153.083 33.5803 153.232 33.4216C153.391 33.263 153.47 32.997 153.47 32.6236Z" fill="white"/>
<path d="M146.364 31.9236V37.2156C146.364 37.8596 146.63 38.1816 147.162 38.1816C147.694 38.1816 147.96 37.8596 147.96 37.2156V31.9236C147.96 31.2796 147.694 30.9576 147.162 30.9576C146.63 30.9576 146.364 31.2796 146.364 31.9236ZM144.824 37.1176V32.0216C144.824 31.2376 145.025 30.6309 145.426 30.2016C145.828 29.7723 146.406 29.5576 147.162 29.5576C147.918 29.5576 148.497 29.7723 148.898 30.2016C149.3 30.6309 149.5 31.2376 149.5 32.0216V37.1176C149.5 37.9016 149.3 38.5083 148.898 38.9376C148.497 39.367 147.918 39.5816 147.162 39.5816C146.406 39.5816 145.828 39.367 145.426 38.9376C145.025 38.5083 144.824 37.9016 144.824 37.1176Z" fill="white"/>
<path d="M139.512 31.0699V29.6699H144.272V31.0699H142.662V39.4699H141.122V31.0699H139.512Z" fill="white"/>
<path d="M136.597 29.6699C137.391 29.6699 137.969 29.8566 138.333 30.2299C138.697 30.5939 138.879 31.1586 138.879 31.9239V32.2739C138.879 33.2819 138.548 33.9399 137.885 34.2479C138.651 34.5466 139.033 35.2466 139.033 36.3479V37.1459C139.033 37.9019 138.833 38.4806 138.431 38.8819C138.039 39.2739 137.461 39.4699 136.695 39.4699H134.273V29.6699H136.597ZM136.499 35.0599H135.813V38.0699H136.695C136.966 38.0699 137.167 37.9999 137.297 37.8599C137.428 37.7106 137.493 37.4586 137.493 37.1039V36.2499C137.493 35.8019 137.414 35.4939 137.255 35.3259C137.106 35.1486 136.854 35.0599 136.499 35.0599ZM136.555 31.0699H135.813V33.6599H136.415C136.723 33.6599 136.952 33.5806 137.101 33.4219C137.26 33.2633 137.339 32.9973 137.339 32.6239V32.0779C137.339 31.4059 137.078 31.0699 136.555 31.0699Z" fill="white"/>
<path d="M131.988 29.6699L133.556 39.4699H132.002L131.736 37.6919H129.846L129.58 39.4699H128.166L129.734 29.6699H131.988ZM130.784 31.4059L130.042 36.3619H131.526L130.784 31.4059Z" fill="white"/>
<path fill-rule="evenodd" clip-rule="evenodd" d="M31.5 5.96324C31.5 13.1299 32.3 28.5632 35.5 32.9632C36.4486 34.2675 38.0649 35.9847 40 37.8597V31.4633L46 28.4633L42.5 26.4633V16.9633L67.5 3.46326V39.4633L60.5 31.4633V13.9633L47.5 21.9633L52 24.9633V33.4633L41.1018 38.9123C45.5693 43.125 51.2557 47.8678 54.5 50.4632C59 47.1299 69.1 38.9632 73.5 32.9632C74.8333 30.1299 77.5 20.7632 77.5 5.96324C70.5 1.46324 51.5 -4.83676 31.5 5.96324Z" fill="white"/>
<path d="M79 18.9629L79.5 6.96289L109 5.96289C108.6 9.16289 106.167 11.6296 105 12.4629L79 18.9629Z" fill="white"/>
<path d="M103.5 14.9629L78.5 21.4629L77 31.4629C80.6667 30.1296 89.4 27.0629 95 25.4629C100.6 23.8629 103 17.7962 103.5 14.9629Z" fill="white"/>
<path d="M30 18.9629L29.5 6.96289L0 5.96289C0.4 9.16289 2.83333 11.6296 4 12.4629L30 18.9629Z" fill="white"/>
<path d="M5.5 14.9629L30.5 21.4629L32 31.4629C28.3333 30.1296 19.6 27.0629 14 25.4629C8.4 23.8629 6 17.7962 5.5 14.9629Z" fill="white"/>
</svg>
