<svg width="60" height="60" viewBox="0 0 60 60" fill="none" xmlns="http://www.w3.org/2000/svg">
<path d="M47.78 26.25C47.3816 26.25 46.0468 26.2617 45.6706 26.2852L38.0651 26.4844C38.0256 26.4868 37.9862 26.4782 37.9512 26.4596C37.9163 26.441 37.8872 26.4131 37.8671 26.3789L22.6819 7.91719C22.5898 7.79526 22.4723 7.69481 22.3376 7.62277C22.2028 7.55074 22.054 7.50885 21.9015 7.5H18.7503L27.305 26.3672C27.3254 26.4104 27.3342 26.4581 27.3306 26.5058C27.327 26.5534 27.311 26.5992 27.2843 26.6388C27.2576 26.6784 27.221 26.7104 27.1782 26.7316C27.1354 26.7528 27.0878 26.7625 27.0401 26.7598L12.7796 26.9707C12.6312 26.9752 12.4838 26.9446 12.3494 26.8815C12.2151 26.8184 12.0975 26.7245 12.0062 26.6074L7.67022 21.334C7.31866 20.877 6.66007 20.6309 6.08702 20.6309H3.87686C3.72569 20.6309 3.74796 20.7727 3.78897 20.9156L6.11397 29.2852C6.28972 29.7334 6.28972 30.2315 6.11397 30.6797L3.78663 39.0234C3.71749 39.252 3.72569 39.375 3.99405 39.375H6.09405C7.04796 39.375 7.17804 39.2508 7.66554 38.6367L12.0835 33.2812C12.1756 33.1651 12.2934 33.0718 12.4276 33.0088C12.5618 32.9458 12.7087 32.9147 12.8569 32.918L26.9991 33.2344C27.0506 33.2355 27.101 33.2493 27.146 33.2744C27.191 33.2994 27.2292 33.3351 27.2573 33.3783C27.2853 33.4215 27.3024 33.4709 27.3071 33.5222C27.3117 33.5735 27.3037 33.6251 27.2839 33.6727L18.7503 52.5H21.8722C22.0244 52.4911 22.1729 52.4493 22.3075 52.3775C22.442 52.3057 22.5594 52.2055 22.6515 52.084L37.8683 33.6328C37.914 33.5625 38.1026 33.5273 38.1835 33.5273L45.6718 33.7266C46.0585 33.75 47.3816 33.7617 47.7812 33.7617C52.9691 33.7617 56.2503 32.3355 56.2503 30C56.2503 27.6645 52.9831 26.25 47.78 26.25Z" stroke="#000BA9" stroke-width="4" stroke-linecap="round" stroke-linejoin="round"/>
</svg>
