<svg width="60" height="60" viewBox="0 0 60 60" fill="none" xmlns="http://www.w3.org/2000/svg">
<path d="M30.7368 22.5363C29.198 22.3844 27.6498 22.7117 26.3043 23.4736C24.9587 24.2355 23.8815 25.3947 23.2202 26.7924C22.5589 28.1902 22.3458 29.7582 22.61 31.2817C22.8743 32.8053 23.603 34.2099 24.6964 35.3033C25.7898 36.3967 27.1944 37.1254 28.718 37.3897C30.2415 37.6539 31.8095 37.4408 33.2073 36.7795C34.605 36.1182 35.7642 35.041 36.5261 33.6954C37.288 32.3499 37.6154 30.8017 37.4634 29.2629C37.2901 27.5379 36.5258 25.9258 35.2998 24.6999C34.0739 23.4739 32.4619 22.7096 30.7368 22.5363ZM48.7954 30C48.7906 30.8152 48.7307 31.6292 48.6161 32.4363L53.9142 36.5918C54.1449 36.783 54.3003 37.0499 54.3529 37.3449C54.4054 37.6399 54.3517 37.944 54.2013 38.2031L49.1892 46.875C49.037 47.1317 48.799 47.3263 48.5173 47.4247C48.2356 47.5231 47.9282 47.5189 47.6493 47.4129L42.3876 45.2941C42.0974 45.1786 41.7832 45.1369 41.4729 45.1727C41.1626 45.2085 40.8661 45.3207 40.6099 45.4992C39.8068 46.0522 38.963 46.5435 38.0857 46.9687C37.8098 47.1028 37.5712 47.3027 37.391 47.5508C37.2107 47.799 37.0943 48.0876 37.0521 48.3914L36.2634 54.0035C36.2116 54.2999 36.0585 54.5691 35.8302 54.7651C35.6019 54.9611 35.3126 55.0718 35.0118 55.0781H24.9876C24.6918 55.073 24.4065 54.9673 24.1788 54.7783C23.951 54.5894 23.7945 54.3285 23.7349 54.0387L22.9474 48.4348C22.9031 48.1277 22.7837 47.8362 22.5997 47.5864C22.4157 47.3366 22.1728 47.1361 21.8927 47.0027C21.0164 46.5797 20.1754 46.0871 19.3778 45.5297C19.1225 45.352 18.8269 45.2407 18.5178 45.2057C18.2087 45.1707 17.8957 45.2132 17.6071 45.3293L12.3466 47.4469C12.0678 47.553 11.7605 47.5574 11.4788 47.4592C11.1971 47.361 10.9591 47.1666 10.8067 46.9102L5.79463 38.2383C5.64395 37.9792 5.5901 37.675 5.64267 37.38C5.69525 37.0849 5.85084 36.818 6.08174 36.627L10.5595 33.1113C10.8048 32.9166 10.9976 32.6637 11.1204 32.3755C11.2432 32.0874 11.2921 31.7732 11.2626 31.4613C11.2204 30.9727 11.1946 30.4852 11.1946 29.9965C11.1946 29.5078 11.2192 29.0273 11.2626 28.5492C11.2888 28.2393 11.2376 27.9277 11.1134 27.6425C10.9892 27.3574 10.796 27.1076 10.5513 26.9156L6.07588 23.4C5.84873 23.2079 5.69642 22.942 5.64564 22.6489C5.59486 22.3558 5.64885 22.0542 5.79815 21.7969L10.8103 13.125C10.9625 12.8683 11.2004 12.6737 11.4821 12.5753C11.7638 12.4769 12.0712 12.4811 12.3501 12.5871L17.6118 14.7059C17.902 14.8214 18.2163 14.8631 18.5265 14.8273C18.8368 14.7915 19.1333 14.6793 19.3896 14.5008C20.1926 13.9478 21.0364 13.4565 21.9138 13.0312C22.1896 12.8972 22.4282 12.6973 22.6085 12.4492C22.7887 12.201 22.9051 11.9124 22.9474 11.6086L23.736 5.99648C23.7878 5.7001 23.941 5.4309 24.1692 5.23489C24.3975 5.03889 24.6868 4.92824 24.9876 4.92188H35.0118C35.3077 4.92699 35.593 5.03274 35.8207 5.22168C36.0484 5.41063 36.2049 5.6715 36.2646 5.96133L37.0521 11.5652C37.0963 11.8723 37.2157 12.1638 37.3997 12.4136C37.5837 12.6634 37.8266 12.8639 38.1067 12.9973C38.9831 13.4203 39.824 13.9129 40.6216 14.4703C40.8769 14.648 41.1725 14.7593 41.4816 14.7943C41.7907 14.8293 42.1037 14.7868 42.3923 14.6707L47.6528 12.5531C47.9316 12.447 48.2389 12.4426 48.5206 12.5408C48.8023 12.639 49.0403 12.8334 49.1927 13.0898L54.2048 21.7617C54.3555 22.0208 54.4093 22.325 54.3568 22.62C54.3042 22.9151 54.1486 23.182 53.9177 23.373L49.4399 26.8887C49.1936 27.0828 48.9996 27.3354 48.8758 27.6236C48.752 27.9118 48.7022 28.2263 48.731 28.5387C48.7696 29.0238 48.7954 29.5113 48.7954 30Z" stroke="#000BA9" stroke-width="4" stroke-linecap="round" stroke-linejoin="round"/>
</svg>
