<svg width="30" height="30" viewBox="0 0 30 30" fill="none" xmlns="http://www.w3.org/2000/svg">
<path d="M22.9103 28.1254C21.7665 28.1254 20.1599 27.7118 17.754 26.3676C14.8284 24.727 12.5655 23.2123 9.65577 20.3102C6.8503 17.5065 5.48507 15.6913 3.57432 12.2143C1.41573 8.28852 1.7837 6.23071 2.19503 5.35121C2.68487 4.30004 3.40792 3.67133 4.34249 3.04731C4.87332 2.69952 5.43507 2.40138 6.02061 2.15668C6.07921 2.13149 6.1337 2.10746 6.18233 2.08578C6.47237 1.95512 6.91182 1.75766 7.46847 1.9686C7.83995 2.10805 8.17159 2.3934 8.69073 2.9061C9.75538 3.9561 11.2103 6.29457 11.747 7.44301C12.1073 8.21703 12.3458 8.72797 12.3464 9.30102C12.3464 9.97192 12.0089 10.4893 11.5993 11.0477C11.5226 11.1526 11.4464 11.2528 11.3726 11.35C10.9267 11.936 10.8288 12.1053 10.8933 12.4077C11.0239 13.0153 11.9983 14.8241 13.5997 16.4219C15.2011 18.0198 16.9577 18.9327 17.5677 19.0627C17.8829 19.1301 18.0558 19.0282 18.6605 18.5664C18.7472 18.5002 18.8362 18.4317 18.9294 18.3631C19.554 17.8985 20.0474 17.5698 20.7024 17.5698H20.706C21.2761 17.5698 21.7642 17.817 22.5728 18.2248C23.6274 18.7569 26.0362 20.193 27.0927 21.2588C27.6066 21.7768 27.8931 22.1073 28.0331 22.4782C28.2441 23.0366 28.0454 23.4743 27.9159 23.7672C27.8942 23.8159 27.8702 23.8692 27.845 23.9284C27.5984 24.5129 27.2985 25.0734 26.9491 25.603C26.3263 26.5346 25.6952 27.2559 24.6417 27.7463C24.1007 28.0022 23.5087 28.1318 22.9103 28.1254Z" fill="#000BA9"/>
</svg>
