<svg width="56" height="56" viewBox="0 0 56 56" fill="none" xmlns="http://www.w3.org/2000/svg">
<g clip-path="url(#clip0_267_252)">
<path d="M50.1383 41.6366C49.169 40.9155 47.7987 41.1169 47.0776 42.086C46.681 42.6191 46.2566 43.142 45.8162 43.6402C45.0161 44.5453 45.1011 45.9278 46.0062 46.728C46.4224 47.0959 46.9392 47.2766 47.4542 47.2766C48.0592 47.2766 48.6617 47.0269 49.0939 46.5379C49.6155 45.9479 50.1181 45.3287 50.5878 44.6972C51.3089 43.7281 51.1077 42.3576 50.1383 41.6366Z" fill="#000BA9"/>
<path d="M53.7968 31.3786C52.6171 31.1217 51.4511 31.8704 51.1941 33.0508C51.0527 33.7001 50.8819 34.3507 50.686 34.9846C50.3293 36.139 50.9759 37.3637 52.1302 37.7204C52.3453 37.7868 52.5627 37.8184 52.7767 37.8184C53.7107 37.8184 54.5757 37.2153 54.866 36.276C55.0985 35.5237 55.3013 34.7516 55.4691 33.9813C55.726 32.8009 54.9773 31.6357 53.7968 31.3786Z" fill="#000BA9"/>
<path d="M39.6081 48.6431C39.0273 48.9673 38.426 49.2703 37.8209 49.5436C36.7198 50.0408 36.2304 51.3365 36.7276 52.4376C37.0929 53.2465 37.8891 53.7252 38.7225 53.7252C39.0235 53.7252 39.3294 53.6628 39.6216 53.5309C40.3394 53.2067 41.0523 52.8474 41.7409 52.4629C42.7958 51.8741 43.1735 50.5414 42.5844 49.4866C41.9957 48.4319 40.663 48.0542 39.6081 48.6431Z" fill="#000BA9"/>
<path d="M25.8125 10.5V27.0939L17.7911 35.1153C16.9368 35.9696 16.9368 37.3546 17.7911 38.2088C18.2183 38.6361 18.7779 38.8496 19.3379 38.8496C19.8977 38.8496 20.4576 38.636 20.8848 38.2088L29.5469 29.5468C29.9571 29.1366 30.1875 28.5801 30.1875 28V10.5C30.1875 9.29184 29.2082 8.3125 28 8.3125C26.7919 8.3125 25.8125 9.29184 25.8125 10.5Z" fill="#000BA9"/>
<path d="M53.8125 4.70312C52.6043 4.70312 51.625 5.68247 51.625 6.89062V12.9649C46.5334 4.97962 37.6415 0 28 0C20.5209 0 13.4895 2.91255 8.20094 8.20094C2.91255 13.4895 0 20.5209 0 28C0 35.4791 2.91255 42.5105 8.20094 47.7991C13.4895 53.0875 20.5209 56 28 56C28.0185 56 28.0363 55.9977 28.0547 55.9973C28.0731 55.9977 28.0909 56 28.1094 56C28.8978 56 29.6939 55.9667 30.4759 55.9013C31.6798 55.8005 32.5741 54.7428 32.4733 53.539C32.3724 52.3351 31.3161 51.4404 30.1108 51.5417C29.4498 51.5969 28.7765 51.625 28.1094 51.625C28.0909 51.625 28.0731 51.6273 28.0547 51.6277C28.0363 51.6273 28.0185 51.625 28 51.625C14.9731 51.625 4.375 41.0269 4.375 28C4.375 14.9731 14.9731 4.375 28 4.375C36.3954 4.375 44.1172 8.84986 48.3368 15.9688H42.3219C41.1137 15.9688 40.1344 16.9481 40.1344 18.1562C40.1344 19.3644 41.1137 20.3438 42.3219 20.3438H49C50.3322 20.3438 51.5785 19.9694 52.6397 19.3208C52.7079 19.2818 52.7735 19.2399 52.8361 19.1948C54.7399 17.9423 56 15.788 56 13.3438V6.89062C56 5.68247 55.0207 4.70312 53.8125 4.70312Z" fill="#000BA9"/>
</g>
<defs>
<clipPath id="clip0_267_252">
<rect width="56" height="56" fill="white"/>
</clipPath>
</defs>
</svg>
